<?xml version="1.0" encoding="UTF-8" standalone="no"?>
<svg
   width="154.39101"
   height="39.999016"
   viewBox="0 0 154.391 39.999015"
   version="1.1"
   id="svg1"
   sodipodi:docname="fantom-logo.svg"
   inkscape:export-filename="fantom-logo-blue.svg"
   inkscape:export-xdpi="96"
   inkscape:export-ydpi="96"
   xmlns:inkscape="http://www.inkscape.org/namespaces/inkscape"
   xmlns:sodipodi="http://sodipodi.sourceforge.net/DTD/sodipodi-0.dtd"
   xmlns="http://www.w3.org/2000/svg"
   xmlns:svg="http://www.w3.org/2000/svg">
  <defs
     id="defs1" />
  <sodipodi:namedview
     id="namedview1"
     pagecolor="#ffffff"
     bordercolor="#666666"
     borderopacity="1.0"
     inkscape:showpageshadow="2"
     inkscape:pageopacity="0.0"
     inkscape:pagecheckerboard="0"
     inkscape:deskcolor="#d1d1d1"
     showgrid="false" />
  <g
     id="Group_69"
     data-name="Group 69"
     transform="translate(-521,-926.00049)"
     style="font-variation-settings:normal;opacity:1;vector-effect:none;fill:#1969ff;fill-opacity:1;stroke-width:1;stroke-linecap:butt;stroke-linejoin:miter;stroke-miterlimit:4;stroke-dasharray:none;stroke-dashoffset:0;stroke-opacity:1;-inkscape-stroke:none;stop-color:#000000;stop-opacity:1">
    <path
       id="explorer-logo-title"
       d="M 7.406,25.947 V 11.334 h 4.05 V 8.658 h -4.05 v -1.92 q 0,-3.26 2.85,-3.26 a 6.178,6.178 0 0 1 1.75,0.275 V 0.906 A 8.574,8.574 0 0 0 9.5,0.562 5.44,5.44 0 0 0 5.4,2.072 6.07,6.07 0 0 0 3.94,6.462 v 2.2 H 0.609 v 2.676 h 3.33 v 14.609 h 3.468 z m 14.075,0.24 A 7.106,7.106 0 0 0 24.966,25.364 5.3,5.3 0 0 0 27.214,23 v 2.95 h 3.433 V 8.658 h -3.433 v 2.813 A 5.621,5.621 0 0 0 24.948,9.087 6.892,6.892 0 0 0 21.481,8.247 7.168,7.168 0 0 0 17.5,9.379 a 7.561,7.561 0 0 0 -2.73,3.19 10.907,10.907 0 0 0 -0.978,4.734 10.722,10.722 0 0 0 0.961,4.682 7.128,7.128 0 0 0 6.729,4.2 z m 0.824,-2.744 a 4.5,4.5 0 0 1 -3.69,-1.612 6.952,6.952 0 0 1 -1.322,-4.531 7.231,7.231 0 0 1 1.322,-4.614 4.407,4.407 0 0 1 3.656,-1.664 4.41,4.41 0 0 1 3.656,1.612 7.213,7.213 0 0 1 1.287,4.6 7.227,7.227 0 0 1 -1.287,4.58 4.353,4.353 0 0 1 -3.622,1.63 z m 16.856,2.5 V 16.1 a 5.062,5.062 0 0 1 1.322,-3.67 4.657,4.657 0 0 1 3.517,-1.371 3.48,3.48 0 0 1 2.8,1.03 5.037,5.037 0 0 1 0.876,3.293 v 10.565 h 3.467 V 15.176 q 0,-6.93 -6.214,-6.93 A 7.151,7.151 0 0 0 41.376,9.121 5.787,5.787 0 0 0 38.99,11.643 L 38.68,8.658 h -3.227 a 38.953,38.953 0 0 1 0.275,4.871 v 12.418 h 3.433 z m 23.585,0.24 A 8.118,8.118 0 0 0 65.32,25.806 V 23 a 6.388,6.388 0 0 1 -1.82,0.275 2.979,2.979 0 0 1 -2.145,-0.738 3.391,3.391 0 0 1 -0.772,-2.521 v -8.68 h 4.772 V 8.659 H 60.583 V 3.135 l -3.468,1.2 v 4.323 h -3.364 v 2.676 h 3.364 v 8.953 a 6.029,6.029 0 0 0 1.477,4.391 5.545,5.545 0 0 0 4.154,1.51 z m 13.25,0 a 8.774,8.774 0 0 0 4.43,-1.1 7.464,7.464 0 0 0 2.974,-3.115 10.169,10.169 0 0 0 1.047,-4.734 10.268,10.268 0 0 0 -1.047,-4.75 7.424,7.424 0 0 0 -2.97,-3.14 9.556,9.556 0 0 0 -8.891,0 7.424,7.424 0 0 0 -2.97,3.14 10.268,10.268 0 0 0 -1.047,4.75 10.178,10.178 0 0 0 1.047,4.734 7.448,7.448 0 0 0 2.97,3.122 8.844,8.844 0 0 0 4.461,1.098 z m -0.033,-2.744 a 4.452,4.452 0 0 1 -3.657,-1.578 7.184,7.184 0 0 1 -1.287,-4.63 7.143,7.143 0 0 1 1.305,-4.6 4.46,4.46 0 0 1 3.676,-1.606 4.375,4.375 0 0 1 3.622,1.612 7.213,7.213 0 0 1 1.287,4.6 7.25,7.25 0 0 1 -1.27,4.631 4.439,4.439 0 0 1 -3.673,1.578 z m 15.963,2.5 v -9.768 a 5.588,5.588 0 0 1 1.167,-3.74 3.934,3.934 0 0 1 3.158,-1.372 2.913,2.913 0 0 1 2.49,1.03 5.473,5.473 0 0 1 0.772,3.258 v 10.6 h 3.467 v -9.776 a 5.642,5.642 0 0 1 1.15,-3.74 3.884,3.884 0 0 1 3.141,-1.372 2.913,2.913 0 0 1 2.49,1.03 5.473,5.473 0 0 1 0.772,3.258 v 10.6 H 114 V 15.176 q 0,-6.93 -5.767,-6.93 a 6.719,6.719 0 0 0 -3.45,0.892 5.872,5.872 0 0 0 -2.318,2.436 Q 101.229,8.247 97.213,8.247 a 6.2,6.2 0 0 0 -3.3,0.857 5.613,5.613 0 0 0 -2.163,2.436 L 91.441,8.658 h -3.223 a 38.953,38.953 0 0 1 0.275,4.871 v 12.418 h 3.433 z"
       transform="translate(561.391,932.438)"
       fill="#fff"
       style="font-variation-settings:normal;vector-effect:none;fill:#1969ff;fill-opacity:1;stroke-width:1;stroke-linecap:butt;stroke-linejoin:miter;stroke-miterlimit:4;stroke-dasharray:none;stroke-dashoffset:0;stroke-opacity:1;-inkscape-stroke:none;stop-color:#000000;stop-opacity:1" />
    <path
       id="explorer-logo"
       d="m 14.043,0.383 a 4.018,4.018 0 0 1 3.422,0 L 27.381,5.6 a 1.672,1.672 0 0 1 0.965,1.24 h 0.01 v 26.2 a 1.633,1.633 0 0 1 -0.975,1.364 l -9.916,5.213 a 4.018,4.018 0 0 1 -3.422,0 L 4.127,34.4 A 1.615,1.615 0 0 1 3.174,33.036 c 0,-0.045 0,-0.083 0,-0.115 V 6.835 A 1.613,1.613 0 0 1 4.127,5.6 Z m 12.751,21.072 -9.329,4.9 a 4.011,4.011 0 0 1 -3.422,0 L 4.734,21.466 v 11.522 l 9.309,4.868 a 4.57,4.57 0 0 0 1.5,0.577 l 0.213,0.013 A 3.928,3.928 0 0 0 17.4,37.9 l 9.4,-4.956 V 21.455 Z M 1.561,32.47 a 4.808,4.808 0 0 0 0.35,2.129 2.717,2.717 0 0 0 1.01,1.038 l 0.03,0.02 c 0.117,0.078 0.245,0.16 0.4,0.256 l 0.184,0.111 0.563,0.339 -0.808,1.33 -0.63,-0.38 -0.106,-0.065 C 2.371,37.136 2.22,37.04 2.079,36.948 0.573,35.935 0.011,34.833 0,32.54 v -0.07 h 1.56 z m 13.41,-18.038 a 1.646,1.646 0 0 0 -0.2,0.085 L 4.857,19.73 4.827,19.747 H 4.818 l 0.016,0.01 0.023,0.012 9.916,5.213 a 1.466,1.466 0 0 0 0.2,0.085 z m 1.565,0 v 10.639 a 1.466,1.466 0 0 0 0.2,-0.085 l 9.916,-5.213 0.03,-0.017 h 0.009 l -0.016,-0.008 -0.023,-0.013 -9.916,-5.213 a 1.466,1.466 0 0 0 -0.2,-0.085 z M 26.794,8.7 l -8.9,4.676 8.9,4.676 V 8.695 Z M 4.734,8.711 v 9.33 l 8.874,-4.665 z m 12,-6.95 a 2.482,2.482 0 0 0 -1.964,0 L 4.856,6.97 4.826,6.986 4.817,6.991 4.833,7 l 0.023,0.011 9.916,5.213 a 2.466,2.466 0 0 0 1.964,0 L 26.652,7.011 26.682,7 26.691,6.995 26.675,6.986 26.652,6.974 Z M 28.258,2.334 28.888,2.713 29,2.772 c 0.182,0.112 0.333,0.209 0.474,0.3 1.507,1.01 2.068,2.113 2.08,4.406 v 0.07 h -1.565 a 4.813,4.813 0 0 0 -0.35,-2.13 2.712,2.712 0 0 0 -1.011,-1.037 l -0.03,-0.02 C 28.482,4.282 28.354,4.201 28.198,4.105 L 28.015,4 27.452,3.662 28.26,2.332 Z"
       transform="translate(521,926)"
       fill="#fff"
       style="font-variation-settings:normal;vector-effect:none;fill:#1969ff;fill-opacity:1;stroke-width:1;stroke-linecap:butt;stroke-linejoin:miter;stroke-miterlimit:4;stroke-dasharray:none;stroke-dashoffset:0;stroke-opacity:1;-inkscape-stroke:none;stop-color:#000000;stop-opacity:1" />
  </g>
</svg>
