<svg xmlns="http://www.w3.org/2000/svg" width="154.391" height="39.999" viewBox="0 0 154.391 39.999">
  <g id="Group_69" data-name="Group 69" transform="translate(-521 -926)">
    <path id="explorer-logo-title" d="M7.406,25.947V11.334h4.05V8.658H7.406V6.738q0-3.26,2.85-3.26a6.178,6.178,0,0,1,1.75.275V.906A8.574,8.574,0,0,0,9.5.562a5.44,5.44,0,0,0-4.1,1.51,6.07,6.07,0,0,0-1.46,4.39v2.2H.609v2.676h3.33V25.947H7.407Zm14.075.24a7.106,7.106,0,0,0,3.485-.823A5.3,5.3,0,0,0,27.214,23v2.95h3.433V8.658H27.214v2.813a5.621,5.621,0,0,0-2.266-2.384,6.892,6.892,0,0,0-3.467-.84A7.168,7.168,0,0,0,17.5,9.379a7.561,7.561,0,0,0-2.73,3.19,10.907,10.907,0,0,0-.978,4.734,10.722,10.722,0,0,0,.961,4.682,7.128,7.128,0,0,0,6.729,4.2Zm.824-2.744a4.5,4.5,0,0,1-3.69-1.612A6.952,6.952,0,0,1,17.293,17.3a7.231,7.231,0,0,1,1.322-4.614,4.407,4.407,0,0,1,3.656-1.664,4.41,4.41,0,0,1,3.656,1.612,7.213,7.213,0,0,1,1.287,4.6,7.227,7.227,0,0,1-1.287,4.58,4.353,4.353,0,0,1-3.622,1.63Zm16.856,2.5V16.1a5.062,5.062,0,0,1,1.322-3.67A4.657,4.657,0,0,1,44,11.059a3.48,3.48,0,0,1,2.8,1.03,5.037,5.037,0,0,1,.876,3.293V25.947h3.467V15.176q0-6.93-6.214-6.93a7.151,7.151,0,0,0-3.553.875,5.787,5.787,0,0,0-2.386,2.522L38.68,8.658H35.453a38.953,38.953,0,0,1,.275,4.871V25.947h3.433Zm23.585.24a8.118,8.118,0,0,0,2.574-.377V23a6.388,6.388,0,0,1-1.82.275,2.979,2.979,0,0,1-2.145-.738,3.391,3.391,0,0,1-.772-2.521v-8.68h4.772V8.659H60.583V3.135l-3.468,1.2V8.658H53.751v2.676h3.364v8.953a6.029,6.029,0,0,0,1.477,4.391,5.545,5.545,0,0,0,4.154,1.51Zm13.25,0a8.774,8.774,0,0,0,4.43-1.1A7.464,7.464,0,0,0,83.4,21.968a10.169,10.169,0,0,0,1.047-4.734,10.268,10.268,0,0,0-1.047-4.75,7.424,7.424,0,0,0-2.97-3.14,9.556,9.556,0,0,0-8.891,0,7.424,7.424,0,0,0-2.97,3.14,10.268,10.268,0,0,0-1.047,4.75,10.178,10.178,0,0,0,1.047,4.734,7.448,7.448,0,0,0,2.97,3.122A8.844,8.844,0,0,0,76,26.188Zm-.033-2.744a4.452,4.452,0,0,1-3.657-1.578,7.184,7.184,0,0,1-1.287-4.63,7.143,7.143,0,0,1,1.305-4.6A4.46,4.46,0,0,1,76,11.025a4.375,4.375,0,0,1,3.622,1.612,7.213,7.213,0,0,1,1.287,4.6,7.25,7.25,0,0,1-1.27,4.631,4.439,4.439,0,0,1-3.673,1.578Zm15.963,2.5V16.171a5.588,5.588,0,0,1,1.167-3.74,3.934,3.934,0,0,1,3.158-1.372,2.913,2.913,0,0,1,2.49,1.03,5.473,5.473,0,0,1,.772,3.258v10.6h3.467V16.171a5.642,5.642,0,0,1,1.15-3.74,3.884,3.884,0,0,1,3.141-1.372,2.913,2.913,0,0,1,2.49,1.03,5.473,5.473,0,0,1,.772,3.258v10.6H114V15.176q0-6.93-5.767-6.93a6.719,6.719,0,0,0-3.45.892,5.872,5.872,0,0,0-2.318,2.436q-1.236-3.327-5.252-3.327a6.2,6.2,0,0,0-3.3.857,5.613,5.613,0,0,0-2.163,2.436l-.309-2.882H88.218a38.953,38.953,0,0,1,.275,4.871V25.947h3.433Z" transform="translate(561.391 932.438)" fill="#fff"/>
    <path id="explorer-logo" d="M14.043.383a4.018,4.018,0,0,1,3.422,0L27.381,5.6a1.672,1.672,0,0,1,.965,1.24h.01v26.2a1.633,1.633,0,0,1-.975,1.364l-9.916,5.213a4.018,4.018,0,0,1-3.422,0L4.127,34.4a1.615,1.615,0,0,1-.953-1.364c0-.045,0-.083,0-.115V6.835A1.613,1.613,0,0,1,4.127,5.6ZM26.794,21.455l-9.329,4.9a4.011,4.011,0,0,1-3.422,0L4.734,21.466V32.988l9.309,4.868a4.57,4.57,0,0,0,1.5.577l.213.013A3.928,3.928,0,0,0,17.4,37.9l9.4-4.956V21.455ZM1.561,32.47a4.808,4.808,0,0,0,.35,2.129,2.717,2.717,0,0,0,1.01,1.038l.03.02c.117.078.245.16.4.256l.184.111.563.339-.808,1.33-.63-.38-.106-.065c-.183-.112-.334-.208-.475-.3C.573,35.935.011,34.833,0,32.54v-.07H1.56Zm13.41-18.038a1.646,1.646,0,0,0-.2.085L4.857,19.73l-.03.017-.009,0,.016.01.023.012,9.916,5.213a1.466,1.466,0,0,0,.2.085Zm1.565,0V25.071a1.466,1.466,0,0,0,.2-.085l9.916-5.213.03-.017.009,0-.016-.008-.023-.013-9.916-5.213a1.466,1.466,0,0,0-.2-.085ZM26.794,8.7l-8.9,4.676,8.9,4.676V8.695Zm-22.06.011v9.33l8.874-4.665Zm12-6.95a2.482,2.482,0,0,0-1.964,0L4.856,6.97l-.03.016-.009.005L4.833,7l.023.011,9.916,5.213a2.466,2.466,0,0,0,1.964,0l9.916-5.213L26.682,7l.009-.005-.016-.009-.023-.012Zm11.524.573.63.379L29,2.772c.182.112.333.209.474.3,1.507,1.01,2.068,2.113,2.08,4.406v.07H29.989a4.813,4.813,0,0,0-.35-2.13,2.712,2.712,0,0,0-1.011-1.037l-.03-.02c-.116-.079-.244-.16-.4-.256L28.015,4l-.563-.338.808-1.33Z" transform="translate(521 926)" fill="#fff"/>
  </g>
</svg>
