<svg width="32" height="32" viewBox="0 0 32 32" fill="none" xmlns="http://www.w3.org/2000/svg">
    <path d="M16 0.666504C7.16 0.666504 0 7.7065 0 16.3892C0 23.3372 4.584 29.2292 10.94 31.3065C11.74 31.4545 12.0333 30.9678 12.0333 30.5505C12.0333 30.1772 12.02 29.1878 12.0133 27.8772C7.56267 28.8252 6.624 25.7678 6.624 25.7678C5.896 23.9532 4.844 23.4678 4.844 23.4678C3.39467 22.4932 4.956 22.5132 4.956 22.5132C6.56267 22.6225 7.40667 24.1332 7.40667 24.1332C8.83333 26.5372 11.152 25.8425 12.0667 25.4412C12.2107 24.4238 12.6227 23.7318 13.08 23.3385C9.52667 22.9452 5.792 21.5932 5.792 15.5692C5.792 13.8532 6.412 12.4505 7.43867 11.3505C7.25867 10.9532 6.71867 9.3545 7.57867 7.18917C7.57867 7.18917 8.91867 6.76784 11.9787 8.80117C13.2587 8.45184 14.6187 8.2785 15.9787 8.2705C17.3387 8.2785 18.6987 8.45184 19.9787 8.80117C23.0187 6.76784 24.3587 7.18917 24.3587 7.18917C25.2187 9.3545 24.6787 10.9532 24.5187 11.3505C25.5387 12.4505 26.1587 13.8532 26.1587 15.5692C26.1587 21.6092 22.4187 22.9385 18.8587 23.3252C19.4187 23.7972 19.9387 24.7612 19.9387 26.2345C19.9387 28.3385 19.9187 30.0292 19.9187 30.5398C19.9187 30.9518 20.1987 31.4438 21.0187 31.2865C27.42 29.2225 32 23.3265 32 16.3892C32 7.7065 24.836 0.666504 16 0.666504Z" fill="white"/>
</svg>
