<svg width="32" height="32" viewBox="0 0 32 32" fill="none" xmlns="http://www.w3.org/2000/svg">
    <path d="M28.4332 12.4105C27.4226 12.4105 26.5332 12.8358 25.8786 13.4985C23.4719 11.8078 20.2266 10.7198 16.6306 10.6038L18.4986 2.0625L24.4466 3.41717C24.4466 4.8945 25.6332 6.10116 27.0892 6.10116C28.5732 6.10116 29.7666 4.8625 29.7666 3.38383C29.7666 1.90517 28.5812 0.666504 27.0906 0.666504C26.0519 0.666504 25.1559 1.3025 24.7092 2.17183L18.1399 0.694504C17.8093 0.605171 17.4853 0.84517 17.3973 1.18117L15.3466 10.5972C11.7786 10.7478 8.56794 11.8345 6.15327 13.5265C5.49861 12.8358 4.57461 12.4105 3.56394 12.4105C-0.185383 12.4105 -1.41338 17.5158 2.01995 19.2611C1.89861 19.8011 1.84395 20.3771 1.84395 20.9518C1.84395 26.6865 8.2106 31.3331 16.0279 31.3331C23.8786 31.3331 30.2452 26.6865 30.2452 20.9518C30.2452 20.3771 30.1852 19.7745 30.0372 19.2331C33.4012 17.4811 32.1626 12.4132 28.4332 12.4105ZM7.46794 19.6238C7.46794 18.1185 8.6546 16.9065 10.1453 16.9065C11.6013 16.9065 12.7893 18.1105 12.7893 19.6238C12.7893 21.1025 11.6026 22.3078 10.1453 22.3078C8.66127 22.3145 7.46794 21.1025 7.46794 19.6238ZM21.9199 26.0211C19.4653 28.5118 12.5386 28.5118 10.0826 26.0211C9.81193 25.7811 9.81193 25.3571 10.0826 25.0838C10.3186 24.8438 10.7373 24.8438 10.9733 25.0838C12.8479 27.0345 19.0666 27.0678 21.0226 25.0838C21.2586 24.8438 21.6772 24.8438 21.9132 25.0838C22.1892 25.3585 22.1892 25.7825 21.9199 26.0211ZM21.8652 22.3131C20.4093 22.3131 19.2226 21.1091 19.2226 19.6318C19.2226 18.1265 20.4093 16.9145 21.8652 16.9145C23.3492 16.9145 24.5426 18.1185 24.5426 19.6318C24.5359 21.1025 23.3492 22.3131 21.8652 22.3131Z" fill="white"/>
</svg>
