<?xml version="1.0" encoding="UTF-8"?>
<svg width="32px" height="32px" viewBox="0 0 32 32" version="1.1" xmlns="http://www.w3.org/2000/svg" xmlns:xlink="http://www.w3.org/1999/xlink">
    <title>CSDT</title>
    <g id="CSDT" stroke="none" stroke-width="1" fill="none" fill-rule="evenodd">
        <path d="M29.7655694,13.3821021 L30.3359822,13.3829811 C31.2791795,13.3853068 31.8340014,13.392284 31.8340014,13.4132157 C33.6909212,26.8827475 19.6157818,37.0084446 7.27272727,29.3710002 C7.66283646,28.7587488 8.90772032,26.6921789 8.88777929,26.6786637 C18.7575416,33.068057 30.710487,24.5593318 28.6507105,13.3818182 L29.5583645,13.3819635 C29.6288009,13.3819999 29.6978828,13.3820453 29.7655694,13.3821021 Z M24.7272727,2.62899977 C24.3371635,3.24125122 23.0922797,5.30782105 23.1122207,5.32133627 C13.2424584,-1.06805705 1.289513,7.4406682 3.34928949,18.6181818 L2.44163545,18.6180365 C2.37119907,18.6180001 2.30211724,18.6179547 2.23443059,18.6178979 L1.66401781,18.6170189 C0.720820501,18.6146932 0.165998551,18.607716 0.165998551,18.5867843 C-1.69092116,5.11725245 12.3842182,-5.00844457 24.7272727,2.62899977 Z" fill="#1969FF"></path>
        <path d="M16.2479279,10.9066667 C18.0641441,10.9066667 19.2144144,11.5066667 19.8803604,11.7466667 L20.6068468,8.92666667 C19.7592793,8.50666667 18.6695495,8.20666667 16.9744144,8.08666667 L16.9744144,5.86666667 L14.4922523,5.86666667 L14.4922523,8.26666667 C11.7679279,8.80666667 10.2544144,10.4866667 10.2544144,12.7066667 C10.2544144,15.1066667 12.0706306,16.3666667 14.794955,17.2666667 C16.6717117,17.8666667 17.4587387,18.4666667 17.4587387,19.4266667 C17.4587387,20.4466667 16.4900901,20.9866667 15.0371171,20.9866667 C13.4025225,20.9866667 11.889009,20.4466667 10.8598198,19.9066667 L10.1333333,22.8466667 C11.101982,23.3866667 12.7365766,23.8666667 14.4317117,23.9266667 L14.4317117,26.3266667 L16.9138739,26.3266667 L16.9138739,23.7466667 C19.8198198,23.2666667 21.3938739,21.3466667 21.3938739,19.1266667 C21.3938739,16.9066667 20.1830631,15.5266667 17.156036,14.4466667 C15.0371171,13.6666667 14.129009,13.1266667 14.129009,12.2866667 C14.0684685,11.5666667 14.6133333,10.9066667 16.2479279,10.9066667 Z" id="Path" fill="#1969FF"></path>
    </g>
</svg>