<svg id="Component_4_1" data-name="Component 4 – 1" xmlns="http://www.w3.org/2000/svg" width="14.4" height="16" viewBox="0 0 14.4 16">
  <path id="Path_6" data-name="Path 6" d="M13.948,2.061,12.281.439A1.565,1.565,0,0,0,11.189,0H5.657A1.523,1.523,0,0,0,4.114,1.5V3H1.543A1.522,1.522,0,0,0,0,4.5v10A1.522,1.522,0,0,0,1.543,16h7.2a1.522,1.522,0,0,0,1.543-1.5V13h2.571A1.522,1.522,0,0,0,14.4,11.5V3.121a1.481,1.481,0,0,0-.452-1.06ZM8.549,14.5H1.735a.19.19,0,0,1-.193-.187V4.687A.19.19,0,0,1,1.735,4.5H4.114v7A1.522,1.522,0,0,0,5.657,13H8.743v1.312a.19.19,0,0,1-.193.188Zm4.115-3H5.85a.19.19,0,0,1-.193-.187V1.687A.191.191,0,0,1,5.85,1.5H9.257V4.251a.761.761,0,0,0,.772.75h2.828v6.313a.19.19,0,0,1-.193.188Zm.193-8H10.8v-2h.309a.2.2,0,0,1,.137.055L12.8,3.067a.185.185,0,0,1,.057.132v.3Z" transform="translate(0 0)" fill-rule="evenodd"/>
</svg>
