<svg xmlns="http://www.w3.org/2000/svg" viewBox="0 0 700 700"><metadata>Created by potrace 1.14, written by Peter Selinger 2001-2017</metadata><g transform="translate(0.000000,700.000000) scale(0.100000,-0.100000)" stroke="none">
    <path d="M3077 6980 l-25 -20 0 -193 c1 -177 -6 -373 -16 -422 -2 -11 -7 -49
-11 -85 -3 -36 -8 -72 -10 -80 -3 -8 -7 -35 -11 -60 -3 -25 -7 -54 -9 -65 -3
-16 -47 -227 -60 -285 -15 -67 -83 -291 -123 -410 -176 -515 -425 -990 -787
-1505 -208 -294 -305 -454 -410 -670 -115 -238 -215 -526 -249 -715 -2 -14 -9
-54 -16 -90 -6 -36 -13 -76 -15 -90 -19 -107 -25 -418 -12 -555 32 -330 122
-601 297 -895 174 -295 394 -533 655 -712 108 -74 207 -128 234 -128 29 0 71
43 71 74 0 13 -22 62 -50 109 -167 284 -242 568 -235 897 2 85 6 165 8 177 3
11 9 43 12 70 17 120 85 348 141 471 13 29 24 54 24 56 0 2 20 46 44 98 47
102 62 133 129 284 60 133 116 253 215 464 24 52 61 131 82 175 198 422 430
886 440 880 4 -3 12 -20 15 -38 19 -90 121 -378 198 -557 78 -183 218 -461
268 -532 11 -14 19 -28 19 -31 0 -10 116 -186 196 -299 174 -245 315 -506 403
-745 16 -46 28 -83 26 -83 -2 0 2 -15 10 -32 15 -37 59 -234 72 -318 15 -101
8 -407 -10 -500 -29 -139 -77 -277 -142 -405 -53 -104 -60 -124 -53 -152 6
-24 16 -34 42 -43 40 -13 45 -11 176 65 379 221 650 509 833 886 84 171 164
403 184 534 2 17 8 46 13 65 5 19 12 60 15 90 4 30 9 66 10 80 26 195 26 531
-1 725 -2 17 -6 57 -10 90 -3 33 -8 63 -10 66 -2 4 -6 24 -9 45 -60 405 -276
1025 -473 1359 -10 17 -31 53 -47 80 -16 28 -33 55 -37 60 -5 6 -36 48 -70 95
-72 98 -201 236 -240 256 -33 17 -84 2 -95 -29 -4 -12 -8 -98 -8 -192 -2 -198
-9 -266 -40 -392 -42 -163 -117 -252 -200 -236 -78 16 -186 191 -220 358 -12
54 -24 119 -30 160 -3 22 -8 51 -10 65 -2 14 -7 57 -10 95 -3 39 -8 94 -11
124 -2 30 -7 156 -9 280 -3 124 -7 244 -9 266 -3 22 -8 72 -11 110 -3 39 -8
77 -10 85 -2 8 -7 40 -10 70 -3 30 -8 62 -10 70 -2 8 -7 29 -10 45 -8 49 -12
68 -25 115 -7 25 -13 52 -15 60 -42 213 -198 586 -338 810 -120 190 -207 301
-342 435 -188 188 -222 208 -278 165z"></path>
</g></svg>
