<svg xmlns="http://www.w3.org/2000/svg" width="20" height="20" viewBox="0 0 20 20">
    <path fill="#1969FF" fill-rule="evenodd" d="M10 0l.28.004C15.673.152 20 4.57 20 10l-.004.28C19.848 15.673 15.43 20 10 20 4.477 20 0 15.523 0 10S4.477 0 10 0zm0 2c-4.418 0-8 3.582-8 8s3.582 8 8 8l.25-.004C14.551 17.865 18 14.335 18 10l-.004-.25C17.865 5.449 14.335 2 10 2zm0 6l.117.007c.497.057.883.48.883.993v5c0 .552-.448 1-1 1s-1-.448-1-1V9l.007-.117C9.064 8.386 9.487 8 10 8zm.707-2.707c.39.39.39 1.024 0 1.414-.39.39-1.024.39-1.414 0-.39-.39-.39-1.024 0-1.414.39-.39 1.024-.39 1.414 0z"/>
</svg>
