<?xml version="1.0" encoding="UTF-8"?>
<svg width="27px" height="24px" viewBox="0 0 27 24" version="1.1" xmlns="http://www.w3.org/2000/svg" xmlns:xlink="http://www.w3.org/1999/xlink">
    <!-- Generator: Sketch 59.1 (86144) - https://sketch.com -->
    <title>Shape</title>
    <desc>Created with Sketch.</desc>
    <g id="Symbols" stroke="none" stroke-width="1" fill="none" fill-rule="evenodd">
        <g id="footer" transform="translate(-576.000000, -317.000000)" fill="#FFFFFF" fill-rule="nonzero">
            <g id="FOOTER" transform="translate(440.000000, 129.000000)">
                <g id="social" transform="translate(0.000000, 188.000000)">
                    <path d="M145.362581,19.3247649 C145.362581,19.424019 145.243871,19.5034222 145.094194,19.5034222 C144.923871,19.5183103 144.805161,19.4389071 144.805161,19.3247649 C144.805161,19.2255108 144.923871,19.1461076 145.073548,19.1461076 C145.228387,19.1312195 145.362581,19.2106227 145.362581,19.3247649 Z M143.757419,19.1014433 C143.72129,19.2006973 143.824516,19.3148395 143.979355,19.3446157 C144.113548,19.3942427 144.268387,19.3446157 144.299355,19.2453617 C144.330323,19.1461076 144.232258,19.0319654 144.077419,18.9873011 C143.943226,18.9525622 143.793548,19.0021892 143.757419,19.1014433 Z M146.03871,19.0170773 C145.889032,19.0518162 145.785806,19.1461076 145.80129,19.2602498 C145.816774,19.3595038 145.950968,19.424019 146.105806,19.38928 C146.255484,19.3545411 146.35871,19.2602498 146.343226,19.1609957 C146.327742,19.0667044 146.188387,19.0021892 146.03871,19.0170773 Z M149.434839,0 C142.276129,0 136.8,5.2257261 136.8,12.108995 C136.8,17.6126324 140.402581,22.3222374 145.548387,23.9797802 C146.209032,24.0939223 146.44129,23.7018688 146.44129,23.3792931 C146.44129,23.0716056 146.425806,21.3743612 146.425806,20.3321936 C146.425806,20.3321936 142.812903,21.076599 142.054194,18.8533081 C142.054194,18.8533081 141.465806,17.4091616 140.619355,17.0369589 C140.619355,17.0369589 139.437419,16.2578145 140.701935,16.2727026 C140.701935,16.2727026 141.987097,16.3719567 142.694194,17.55308 C143.824516,19.4686833 145.71871,18.9178233 146.456774,18.5902849 C146.575484,17.7962524 146.910968,17.2453924 147.282581,16.917854 C144.397419,16.6101664 141.486452,16.2081875 141.486452,11.4340674 C141.486452,10.0693241 141.87871,9.38447109 142.704516,8.51103539 C142.570323,8.1884597 142.131613,6.85845534 142.83871,5.14136015 C143.917419,4.81878447 146.4,6.48128992 146.4,6.48128992 C147.432258,6.20337856 148.541935,6.05946018 149.64129,6.05946018 C150.740645,6.05946018 151.850323,6.20337856 152.882581,6.48128992 C152.882581,6.48128992 155.365161,4.81382177 156.443871,5.14136015 C157.150968,6.86341804 156.712258,8.1884597 156.578065,8.51103539 C157.403871,9.38943379 157.909677,10.0742868 157.909677,11.4340674 C157.909677,16.2230756 154.869677,16.6052037 151.984516,16.917854 C152.459355,17.3099075 152.861935,18.054313 152.861935,19.2205481 C152.861935,20.892979 152.846452,22.9624261 152.846452,23.3693677 C152.846452,23.6919434 153.083871,24.0839969 153.739355,23.9698548 C158.900645,22.3222374 162.4,17.6126324 162.4,12.108995 C162.4,5.2257261 156.593548,0 149.434839,0 Z M141.816774,17.1163621 C141.749677,17.1659892 141.765161,17.2801313 141.852903,17.3744227 C141.935484,17.4538259 142.054194,17.4885648 142.12129,17.4240497 C142.188387,17.3744227 142.172903,17.2602805 142.085161,17.1659892 C142.002581,17.0865859 141.883871,17.051847 141.816774,17.1163621 Z M141.259355,16.7143832 C141.223226,16.7788983 141.274839,16.8583016 141.378065,16.9079286 C141.460645,16.9575556 141.563871,16.9426675 141.6,16.8731897 C141.636129,16.8086746 141.584516,16.7292713 141.48129,16.6796443 C141.378065,16.6498681 141.295484,16.6647562 141.259355,16.7143832 Z M142.931613,18.4811054 C142.849032,18.5456206 142.88,18.6945016 142.99871,18.788793 C143.117419,18.9029352 143.267097,18.9178233 143.334194,18.83842 C143.40129,18.7739049 143.370323,18.6250238 143.267097,18.5307324 C143.153548,18.4165903 142.99871,18.4017022 142.931613,18.4811054 Z M142.343226,17.7515881 C142.260645,17.8012151 142.260645,17.9302454 142.343226,18.0443876 C142.425806,18.1585297 142.565161,18.2081568 142.632258,18.1585297 C142.714839,18.0940146 142.714839,17.9649843 142.632258,17.8508422 C142.56,17.7367 142.425806,17.687073 142.343226,17.7515881 Z" id="Shape"></path>
                </g>
            </g>
        </g>
    </g>
</svg>