<?xml version="1.0" encoding="UTF-8"?>
<svg width="24px" height="24px" viewBox="0 0 24 24" version="1.1" xmlns="http://www.w3.org/2000/svg" xmlns:xlink="http://www.w3.org/1999/xlink">
    <!-- Generator: Sketch 59.1 (86144) - https://sketch.com -->
    <title>Shape</title>
    <desc>Created with Sketch.</desc>
    <g id="Symbols" stroke="none" stroke-width="1" fill="none" fill-rule="evenodd">
        <g id="footer" transform="translate(-706.000000, -317.000000)" fill="#FFFFFF" fill-rule="nonzero">
            <g id="FOOTER" transform="translate(440.000000, 129.000000)">
                <g id="social" transform="translate(0.000000, 188.000000)">
                    <path d="M271.586897,24 L266.782759,24 L266.782759,7.97642802 L271.586897,7.97642802 L271.586897,24 Z M269.182241,5.79066494 C267.646034,5.79066494 266.4,4.47277838 266.4,2.88167143 C266.4,1.29016824 267.645652,0 269.182241,0 C270.718831,0 271.964483,1.29016824 271.964483,2.88167143 C271.964483,4.47277838 270.717931,5.79066494 269.182241,5.79066494 Z M289.567241,24 L284.773448,24 L284.773448,16.1998259 C284.773448,14.3408558 284.737241,11.956874 282.27569,11.956874 C279.777931,11.956874 279.395172,13.976562 279.395172,16.0658943 L279.395172,24 L274.596207,24 L274.596207,7.97642802 L279.203793,7.97642802 L279.203793,10.1621911 L279.271034,10.1621911 C279.912414,8.90323442 281.479138,7.57463333 283.816552,7.57463333 C288.678621,7.57463333 289.572414,10.8907788 289.572414,15.1980178 L289.572414,24 L289.567241,24 Z" id="Shape"></path>
                </g>
            </g>
        </g>
    </g>
</svg>