<?xml version="1.0" encoding="UTF-8"?>
<svg width="32px" height="24px" viewBox="0 0 32 24" version="1.1" xmlns="http://www.w3.org/2000/svg" xmlns:xlink="http://www.w3.org/1999/xlink">
    <!-- Generator: Sketch 59.1 (86144) - https://sketch.com -->
    <title>Path</title>
    <desc>Created with Sketch.</desc>
    <g id="Symbols" stroke="none" stroke-width="1" fill="none" fill-rule="evenodd">
        <g id="footer" transform="translate(-768.000000, -317.000000)" fill="#FFFFFF" fill-rule="nonzero">
            <g id="FOOTER" transform="translate(440.000000, 129.000000)">
                <g id="social" transform="translate(0.000000, 188.000000)">
                    <path d="M332.472318,4.89630016 C332.510771,4.527358 332.363366,4.15841584 332.081373,3.90828557 L329.190945,0.506513809 L329.190945,0 L338.176266,0 L345.123548,14.8639917 L351.231259,0 L359.8,0 L359.8,0.506513809 L357.326153,2.82021886 C357.114658,2.97655029 357.005706,3.23918708 357.050569,3.49557061 L357.050569,20.5044294 C357.005706,20.7608129 357.114658,21.0234497 357.326153,21.1797811 L359.74232,23.4934862 L359.74232,24 L347.584577,24 L347.584577,23.4934862 L350.090469,21.1235018 C350.334009,20.8858781 350.334009,20.810839 350.334009,20.4481501 L350.334009,6.7034914 L343.367501,23.9562272 L342.425388,23.9562272 L334.324499,6.7034914 L334.324499,18.2657634 C334.254,18.7535175 334.420633,19.2412715 334.773124,19.5914539 L338.028861,23.4434601 L338.028861,23.9499739 L328.8,23.9499739 L328.8,23.4497134 L332.055737,19.5914539 C332.401819,19.2412715 332.562043,18.7472642 332.472318,18.2657634 L332.472318,4.89630016 Z" id="Path"></path>
                </g>
            </g>
        </g>
    </g>
</svg>