<?xml version="1.0" encoding="UTF-8"?>
<svg width="25px" height="24px" viewBox="0 0 25 24" version="1.1" xmlns="http://www.w3.org/2000/svg" xmlns:xlink="http://www.w3.org/1999/xlink">
    <!-- Generator: Sketch 59.1 (86144) - https://sketch.com -->
    <title>Shape</title>
    <desc>Created with Sketch.</desc>
    <g id="Symbols" stroke="none" stroke-width="1" fill="none" fill-rule="evenodd">
        <g id="footer" transform="translate(-641.000000, -317.000000)" fill="#FFFFFF" fill-rule="nonzero">
            <g id="FOOTER" transform="translate(440.000000, 129.000000)">
                <g id="social" transform="translate(0.000000, 188.000000)">
                    <path d="M210.962903,14.3951613 C210.295161,14.3951613 209.758065,13.8580645 209.758065,13.2048387 C209.758065,12.5370968 210.295161,12 210.962903,12 C211.620968,12 212.153226,12.5370968 212.153226,13.2048387 C212.153226,13.8629032 211.616129,14.3951613 210.962903,14.3951613 Z M225.6,12 C225.6,18.6290323 220.229032,24 213.6,24 C206.970968,24 201.6,18.6290323 201.6,12 C201.6,5.37096774 206.970968,0 213.6,0 C220.229032,0 225.6,5.37096774 225.6,12 Z M219.198387,10.0064516 C218.743548,10.0064516 218.341935,10.1951613 218.046774,10.4903226 C216.962903,9.74032258 215.501613,9.25645161 213.880645,9.20322581 L214.722581,5.41451613 L217.403226,6.01935484 C217.403226,6.67741935 217.940323,7.20967742 218.593548,7.20967742 C219.26129,7.20967742 219.798387,6.66290323 219.798387,6.00483871 C219.798387,5.34677419 219.26129,4.8 218.593548,4.8 C218.124194,4.8 217.722581,5.08064516 217.524194,5.46774194 L214.562903,4.80967742 C214.417742,4.77096774 214.267742,4.87741935 214.229032,5.02258065 L213.304839,9.20322581 C211.698387,9.27096774 210.251613,9.75 209.167742,10.5 C208.872581,10.1903226 208.456452,10.0064516 208.001613,10.0064516 C206.312903,10.0064516 205.76129,12.2758065 207.304839,13.0451613 C207.251613,13.2870968 207.222581,13.5387097 207.222581,13.7951613 C207.222581,16.3403226 210.087097,18.4016129 213.609677,18.4016129 C217.146774,18.4016129 220.01129,16.3403226 220.01129,13.7951613 C220.01129,13.5387097 219.982258,13.2725806 219.919355,13.0306452 C221.433871,12.2564516 220.877419,10.0064516 219.198387,10.0064516 Z M215.864516,15.6290323 C214.983871,16.5096774 212.182258,16.4951613 211.335484,15.6290323 C211.229032,15.5225806 211.040323,15.5225806 210.933871,15.6290323 C210.812903,15.75 210.812903,15.9387097 210.933871,16.0451613 C212.037097,17.1483871 215.158065,17.1483871 216.266129,16.0451613 C216.387097,15.9387097 216.387097,15.75 216.266129,15.6290323 C216.159677,15.5225806 215.970968,15.5225806 215.864516,15.6290323 Z M216.237097,12 C215.579032,12 215.046774,12.5370968 215.046774,13.2048387 C215.046774,13.8629032 215.583871,14.3951613 216.237097,14.3951613 C216.904839,14.3951613 217.441935,13.8580645 217.441935,13.2048387 C217.441935,12.5370968 216.909677,12 216.237097,12 L216.237097,12 Z" id="Shape"></path>
                </g>
            </g>
        </g>
    </g>
</svg>