<?xml version="1.0" encoding="UTF-8"?>
<svg width="30px" height="24px" viewBox="0 0 30 24" version="1.1" xmlns="http://www.w3.org/2000/svg" xmlns:xlink="http://www.w3.org/1999/xlink">
    <!-- Generator: Sketch 59.1 (86144) - https://sketch.com -->
    <title>Path</title>
    <desc>Created with Sketch.</desc>
    <g id="Symbols" stroke="none" stroke-width="1" fill="none" fill-rule="evenodd">
        <g id="footer" transform="translate(-440.000000, -317.000000)" fill="#FFFFFF" fill-rule="nonzero">
            <g id="FOOTER" transform="translate(440.000000, 129.000000)">
                <g id="social" transform="translate(0.000000, 188.000000)">
                    <path d="M26.3181757,5.98122822 C26.3367956,6.24371569 26.3367956,6.50626087 26.3367956,6.76874833 C26.3367956,14.7749623 20.2877459,24 9.23184335,24 C5.82572588,24 2.66160936,23.0062068 -5.15143483e-14,21.2812809 C0.483944599,21.3374952 0.949212041,21.3562526 1.4517765,21.3562526 C4.26223019,21.3562526 6.84941738,20.4000317 8.91542024,18.7687772 C6.27243075,18.7125051 4.05752627,16.9687642 3.29439829,14.5687469 C3.66668099,14.6249612 4.0389064,14.6624759 4.42980897,14.6624759 C4.96955587,14.6624759 5.50936006,14.5874465 6.01186723,14.4562605 C3.25721585,13.8937132 1.19115569,11.4562389 1.19115569,8.51248927 L1.19115569,8.43751759 C1.99146611,8.88752083 2.92217287,9.16876565 3.90856735,9.20622263 C2.28926936,8.11870036 1.22839542,6.26247304 1.22839542,4.16245789 C1.22839542,3.03747863 1.52614138,2.0062284 2.04732571,1.10622191 C5.00673831,4.78121956 9.45516714,7.18117916 14.4432856,7.44372434 C14.3502436,6.9937211 14.294384,6.52501822 14.294384,6.05625762 C14.294384,2.71871911 16.9746132,0 20.3062512,0 C22.0372111,0 23.6006495,0.731248061 24.6988204,1.91249937 C26.0574976,1.6500119 27.3603725,1.14373661 28.5144031,0.450003246 C28.0676409,1.85628503 27.1184288,3.03753634 25.8714136,3.78748404 C27.0812464,3.65629802 28.2538395,3.31872344 29.3333333,2.85002056 C28.5145176,4.0499715 27.4907688,5.11867871 26.3181757,5.98122822 Z" id="Path"></path>
                </g>
            </g>
        </g>
    </g>
</svg>